{"title":"Cloud Atlas (2012) DVDRip [Russian]","uid":7917451,"size":2941896704,"categoryP":"video","categoryS":"movies","magnet":"?xt=urn:btih:c7b64608090cf0a23cac24fe1cd999ed4b556397&amp;dn=Cloud+Atlas+%282012%29+DVDRip+%5BRussian%5D&amp;tr=udp%3A%2F%2Ftracker.openbittorrent.com%3A80&amp;tr=udp%3A%2F%2Fopen.demonii.com%3A1337&amp;tr=udp%3A%2F%2Ftracker.coppersurfer.tk%3A6969&amp;tr=udp%3A%2F%2Fexodus.desync.com%3A6969","seeders":11,"leechers":0,"uploader":"yfjfrj","files":-1,"time":1355399655,"description":"                          WARNING!!! RUSSIAN AUDIO ONLY!!!!!!\n\n\nAn exploration of how the actions of individual lives impact one another in the past, present and future, as one soul is shaped from a killer into a hero, and an act of kindness ripples across centuries to inspire a revolution. \n\n Directors: Tom Tykwer, Andy Wachowski \n Writers: David Mitchell (novel), Lana Wachowski (written for the screen by)\n Stars: Tom Hanks, Halle Berry and Hugh Grant \n\nMediaInfo 0.7.61\nGeneral\nComplete name                            : K:tempOblachny.atlas.2012.D.DVDRip.2800MB.avi\nFormat                                   : AVI\nFormat/Info                              : Audio Video Interleave\nFormat profile                           : OpenDML\nFile size                                : 2.74 GiB\nDuration                                 : 2h 45mn\nOverall bit rate                         : 2 376 Kbps\nWriting application                      : VirtualDubMod 1.5.10.2 (build 2542/release)\nWriting library                          : VirtualDubMod build 2542/release\n\nVideo\nID                                       : 0\nFormat                                   : MPEG-4 Visual\nFormat profile                           : Advanced Simple@L5\nFormat settings, BVOP                    : 2\nFormat settings, QPel                    : No\nFormat settings, GMC                     : No warppoints\nFormat settings, Matrix                  : Default (MPEG)\nCodec ID                                 : XVID\nCodec ID/Hint                            : XviD\nDuration                                 : 2h 45mn\nBit rate                                 : 1 917 Kbps\nWidth                                    : 720 pixels\nHeight                                   : 304 pixels\nDisplay aspect ratio                     : 2.35:1\nFrame rate                               : 25.000 fps\nColor space                              : YUV\nChroma subsampling                       : 4:2:0\nBit depth                                : 8 bits\nScan type                                : Interlaced\nScan order                               : Bottom Field First\nCompression mode                         : Lossy\nBits/(Pixel*Frame)                       : 0.350\nStream size                              : 2.21 GiB (81%)\nWriting library                          : XviD 1.2.1 (UTC 2008-12-04)\n\nAudio\nID                                       : 1\nFormat                                   : AC-3\nFormat/Info                              : Audio Coding 3\nMode extension                           : CM (complete main)\nFormat settings, Endianness              : Big\nCodec ID                                 : 2000\nDuration                                 : 2h 45mn\nBit rate mode                            : Constant\nBit rate                                 : 448 Kbps\nChannel(s)                               : 6 channels\nChannel positions                        : Front: L C R, Side: L R, LFE\nSampling rate                            : 48.0 KHz\nBit depth                                : 16 bits\nCompression mode                         : Lossy\nStream size                              : 529 MiB (19%)\nAlignment                                : Split accross interleaves\nInterleave, duration                     : 40 ms (1.00 video frame)\nInterleave, preload duration             : 500 ms\n\n\nScreenshots: &lt;a href=&quot;\nhttp://img717.imageshack.us/img717/6294/grabkl.png&quot; rel=&quot;nofollow&quot; target=&quot;_NEW&quot;&gt;\nhttp://img717.imageshack.us/img717/6294/grabkl.png&lt;/a&gt; &lt;a href=&quot;\nhttp://img268.imageshack.us/img268/1138/grab2l.png&quot; rel=&quot;nofollow&quot; target=&quot;_NEW&quot;&gt;\nhttp://img268.imageshack.us/img268/1138/grab2l.png&lt;/a&gt; &lt;a href=&quot;\nhttp://img7.imageshack.us/img7/6533/grab3k.png&quot; rel=&quot;nofollow&quot; target=&quot;_NEW&quot;&gt;\nhttp://img7.imageshack.us/img7/6533/grab3k.png&lt;/a&gt; &lt;a href=&quot;\nhttp://img585.imageshack.us/img585/1303/grab4sk.png&quot; rel=&quot;nofollow&quot; target=&quot;_NEW&quot;&gt;\nhttp://img585.imageshack.us/img585/1303/grab4sk.png&lt;/a&gt; &lt;a href=&quot;\nhttp://img707.imageshack.us/img707/1889/grab6s.png&quot; rel=&quot;nofollow&quot; target=&quot;_NEW&quot;&gt;\nhttp://img707.imageshack.us/img707/1889/grab6s.png&lt;/a&gt; &lt;a href=&quot;\nhttp://img827.imageshack.us/img827/6986/grab7l.png&quot; rel=&quot;nofollow&quot; target=&quot;_NEW&quot;&gt;\nhttp://img827.imageshack.us/img827/6986/grab7l.png&lt;/a&gt; &lt;a href=&quot;\nhttp://img833.imageshack.us/img833/363/grab8z.png&quot; rel=&quot;nofollow&quot; target=&quot;_NEW&quot;&gt;\nhttp://img833.imageshack.us/img833/363/grab8z.png&lt;/a&gt;\n","torrent":{"xt":"urn:btih:c7b64608090cf0a23cac24fe1cd999ed4b556397","amp;dn":"Cloud+Atlas+%282012%29+DVDRip+%5BRussian%5D","amp;tr":["udp%3A%2F%2Ftracker.openbittorrent.com%3A80","udp%3A%2F%2Fopen.demonii.com%3A1337","udp%3A%2F%2Ftracker.coppersurfer.tk%3A6969","udp%3A%2F%2Fexodus.desync.com%3A6969"],"infoHash":"c7b64608090cf0a23cac24fe1cd999ed4b556397","infoHashBuffer":{"type":"Buffer","data":[199,182,70,8,9,12,240,162,60,172,36,254,28,217,153,237,75,85,99,151]},"announce":[],"urlList":[]}}